<?xml version="1.0" encoding="UTF-8"?><svg xmlns="http://www.w3.org/2000/svg" class="" enable-background="new 0 0 64 36" height="36px" id="Layer_1" version="1.1" viewBox="0 0 64 36" width="57px" x="0px" xml:space="preserve" y="0px"><g><g><polygon fill="#00599B" points="3.736,-0.01 3.736,36.01 61.088,36.01 61.088,-0.01 3.736,-0.01    "/><polygon fill="#FFFFFF" points="4.698,0.946 4.698,35.047 60.111,35.047 60.111,0.946 4.698,0.946    "/><polygon fill="#00599B" points="5.627,1.665 59.196,1.665 59.196,34.314 5.627,34.314 5.627,1.665    "/><path d="M44.491,18.967v-2.283c0,0-9.331-2.128-22.339,3.957C32.422,17.065,37.947,17.9,44.491,18.967      L44.491,18.967z" fill="#FBAA29"/><path clip-rule="evenodd" d="M22.798,5.242l0.001,6.101l3.659-6.101h1.97l-5.518,8.703      l-2.193,0.009V6.993c0,0,0.039-1.376-1.895-1.748L22.798,5.242L22.798,5.242z M29.167,5.242l-2.827,8.712h2.379l2.68-8.712      H29.167L29.167,5.242z M37.594,7.179l0.67-1.45c0,0-1.122-0.929-3.42-0.706c-1.899,0.186-2.974,1.486-3.049,3.049      c-0.073,1.561,2.017,1.967,2.713,3.084c0.307,0.486,0.187,1.645-1.3,1.599c-1.58-0.049-2.527-0.93-2.527-0.93l-0.596,1.487      c0,0,1.152,1.19,3.679,0.744c1.954-0.346,3.027-1.255,3.31-2.491c0.446-1.97-1.6-2.603-2.529-3.346      c-0.647-0.518-0.519-1.488,0.485-1.673C36.202,6.331,36.962,6.659,37.594,7.179L37.594,7.179z M41.672,7.736l0.267,3.1      l-2.029,0.003L41.672,7.736L41.672,7.736z M42.038,12.044l0.168,1.91h2.292l-0.733-8.671H41.46l-4.909,8.671h1.654l1.05-1.906      L42.038,12.044L42.038,12.044z" fill="#FFFFFF" fill-rule="evenodd"/><polygon fill="#FFFFFF" points="17.101,23.35 18.844,23.35 18.844,30.865 17.101,30.865 17.101,23.35    "/><path d="M29.891,31.01c-0.474,0-0.909-0.061-1.295-0.17c-0.4-0.121-0.739-0.289-1.029-0.521      c-0.279-0.24-0.509-0.533-0.667-0.895c-0.157-0.35-0.229-0.773-0.229-1.258c0-0.498,0.084-0.934,0.254-1.309      c0.169-0.363,0.399-0.666,0.702-0.906c0.29-0.23,0.629-0.398,1.017-0.508c0.386-0.098,0.773-0.158,1.198-0.158      c0.363,0,0.701,0.049,1.016,0.121c0.198,0.055,0.386,0.117,0.563,0.186l-0.527,1.182c0,0-0.279-0.131-0.436-0.168      c-0.158-0.051-0.338-0.072-0.544-0.072c-0.473,0-0.823,0.145-1.078,0.434c-0.253,0.305-0.374,0.701-0.374,1.199      c0,0.531,0.133,0.92,0.386,1.195c0.255,0.268,0.617,0.402,1.09,0.402c0.218,0,0.412-0.025,0.592-0.074      c0.17-0.049,0.315-0.109,0.436-0.182l0.446,1.217c-0.174,0.066-0.355,0.119-0.541,0.164C30.58,30.975,30.252,31.01,29.891,31.01      L29.891,31.01z" fill="#FFFFFF"/><path d="M36.22,30.836c0,0-0.261,0.068-0.439,0.096c-0.205,0.031-0.394,0.029-0.696,0.029      c-0.677,0-1.173-0.133-1.513-0.4c-0.325-0.277-0.496-0.748-0.496-1.404v-2.541h-0.714v-1.172h0.714v-1.551h1.743v1.551h1.635      v1.172h-1.635v1.926c0,0.191,0,0.35,0,0.494c0.012,0.146,0.035,0.268,0.084,0.377c0.049,0.121,0.083,0.166,0.205,0.24      c0.108,0.061,0.701,0.041,0.867-0.139L36.22,30.836L36.22,30.836z" fill="#FFFFFF"/><path d="M41.26,26.723c0,0-2.193-0.066-2.193,1.184l-0.009,2.959h-1.73v-5.422h1.73l0.009,0.676      c0.304-0.275,0.866-0.729,1.987-0.701c0.074,0.002,0.146,0.014,0.206,0.025V26.723L41.26,26.723z" fill="#FFFFFF"/><path d="M54.364,30.865h-1.756v-2.699c0-0.221-0.012-0.436-0.035-0.654s-0.061-0.375-0.109-0.473      c-0.072-0.121-0.156-0.205-0.291-0.266c-0.12-0.049-0.289-0.084-0.521-0.084c-0.156,0-0.314,0.023-0.471,0.084      c-0.17,0.047-0.523,0.309-0.532,0.912v3.18h-1.743v-5.422h1.743v0.523c0.422-0.66,1.499-0.688,1.851-0.688      c0.581,0,1.029,0.174,1.367,0.527c0.327,0.338,0.497,0.846,0.497,1.523V30.865L54.364,30.865z" fill="#FFFFFF"/><path d="M44.908,26.484c-0.184,0-0.343,0.021-0.487,0.059c-0.146,0.051-0.278,0.146-0.409,0.277      c-0.119,0.123-0.212,0.293-0.276,0.51c-0.067,0.23-0.106,0.496-0.106,0.836c0,0.289,0.025,0.545,0.092,0.762      c0.054,0.219,0.146,0.398,0.265,0.531c0.105,0.121,0.236,0.219,0.396,0.268c0.158,0.059,0.331,0.086,0.527,0.096      c0.185,0,0.345-0.037,0.502-0.084c0.158-0.049,0.29-0.145,0.396-0.268c0.131-0.145,0.223-0.301,0.276-0.494      c0.065-0.205,0.093-0.473,0.093-0.811c0-0.326-0.027-0.594-0.093-0.812c-0.067-0.205-0.146-0.387-0.263-0.506      c-0.107-0.135-0.252-0.232-0.41-0.279C45.253,26.506,45.081,26.484,44.908,26.484L44.908,26.484z M44.908,31.033      c-1.028,0-1.82-0.254-2.374-0.775c-0.568-0.508-0.857-1.211-0.857-2.104c0-0.896,0.289-1.611,0.857-2.119      c0.554-0.508,1.346-0.762,2.374-0.762c1.029,0,1.821,0.254,2.389,0.762c0.568,0.52,0.845,1.223,0.845,2.119      c0,0.893-0.276,1.596-0.845,2.104C46.729,30.779,45.926,31.033,44.908,31.033L44.908,31.033z" fill="#FFFFFF"/><path clip-rule="evenodd" d="M23.025,26.363c-0.302,0-0.557,0.084-0.762,0.252      c-0.218,0.172-0.338,0.451-0.362,0.836h1.125h1.126c-0.013-0.363-0.097-0.643-0.267-0.822c-0.17-0.182-0.436-0.279-0.798-0.279      C23.062,26.35,23.049,26.363,23.025,26.363L23.025,26.363z M22.833,29.715c0.193,0.049,0.423,0.07,0.677,0.07      c0.375,0,0.726-0.07,1.065-0.205c0.204-0.076,0.379-0.154,0.53-0.236l0.209,1.322c0,0-0.567,0.178-0.836,0.234      c-0.351,0.074-0.737,0.109-1.149,0.109c-0.17,0-0.339-0.014-0.496-0.025c-0.847-0.059-1.524-0.303-2.009-0.713      c-0.582-0.486-0.872-1.186-0.872-2.094c0-0.896,0.279-1.598,0.823-2.131c0.509-0.484,1.198-0.738,2.058-0.773h0.205      c0.884,0,1.538,0.219,1.985,0.666c0.447,0.445,0.666,1.088,0.666,1.924v0.605h-2.855h-1.126c0.024,0.422,0.194,0.748,0.484,0.98      C22.361,29.57,22.579,29.664,22.833,29.715L22.833,29.715z" fill="#FFFFFF" fill-rule="evenodd"/><polygon fill="#FFFFFF" points="16.021,30.865 10.446,30.865 10.446,23.678 16.021,23.678 16.021,25.055 12.417,25.055       12.417,26.301 15.763,26.301 15.763,27.695 12.417,27.695 12.417,29.471 16.021,29.471 16.021,30.865    "/></g></g></svg>